<svg width="1024" height="1024" viewBox="0 0 1024 1024" xmlns="http://www.w3.org/2000/svg">
  <defs>
    <linearGradient id="scan" x1="0" y1="0" x2="1" y2="0">
      <stop offset="0"   stop-color="#FFFFFF" stop-opacity="0"/>
      <stop offset="0.5" stop-color="#FFFFFF" stop-opacity="0.95"/>
      <stop offset="1"   stop-color="#FFFFFF" stop-opacity="0"/>
    </linearGradient>
  </defs>
  <!-- 前景内容缩到中心安全区（约 72%），外围透明由系统遮罩处理 -->
  <g transform="translate(512 512) scale(0.72) translate(-512 -512)">
    <g fill="none" stroke="#FFFFFF" stroke-width="48" stroke-linecap="round" stroke-linejoin="round">
      <path d="M304 402 V344 Q304 304 344 304 H402"/>
      <path d="M622 304 H680 Q720 304 720 344 V402"/>
      <path d="M720 622 V680 Q720 720 680 720 H622"/>
      <path d="M402 720 H344 Q304 720 304 680 V622"/>
    </g>
    <g fill="#FFFFFF" opacity="0.92">
      <rect x="388" y="388" width="70" height="70" rx="16"/>
      <rect x="566" y="388" width="70" height="70" rx="16"/>
      <rect x="388" y="566" width="70" height="70" rx="16"/>
      <rect x="566" y="566" width="34" height="34" rx="9"/>
      <rect x="620" y="620" width="16" height="16" rx="5"/>
    </g>
    <rect x="304" y="500" width="416" height="24" rx="12" fill="url(#scan)"/>
  </g>
</svg>
